<svg width="116" height="116" viewBox="0 0 116 116" fill="none" xmlns="http://www.w3.org/2000/svg">
<g clip-path="url(#clip0_25_131)">
<path d="M112.333 58.5696C112.333 69.3155 109.146 79.8201 103.176 88.755C97.2059 97.69 88.7204 104.654 78.7924 108.766C68.8645 112.878 57.9401 113.954 47.4006 111.858C36.8612 109.762 27.1801 104.587 19.5816 96.9884C11.9831 89.3899 6.8084 79.7088 4.71197 69.1693C2.61555 58.6299 3.69151 47.7055 7.8038 37.7775C11.9161 27.8496 18.88 19.364 27.8149 13.3939C36.7498 7.42378 47.2544 4.23724 58.0003 4.23724C65.1356 4.23634 72.2012 5.64108 78.7935 8.37121C85.3858 11.1014 91.3757 15.1034 96.4211 20.1488C101.467 25.1942 105.469 31.1841 108.199 37.7764C110.929 44.3688 112.334 51.4343 112.333 58.5696ZM65.6386 58.6382L86.4464 37.8235C87.4487 36.8008 88.0069 35.4238 87.9997 33.9918C87.9925 32.5598 87.4204 31.1885 86.4078 30.1759C85.3952 29.1633 84.0239 28.5912 82.5919 28.584C81.1599 28.5767 79.7829 29.1349 78.7601 30.1372L57.9592 50.952L37.1376 30.1372C36.1148 29.1349 34.7378 28.5767 33.3058 28.584C31.8738 28.5912 30.5025 29.1633 29.49 30.1759C28.4774 31.1885 27.9053 32.5598 27.8981 33.9918C27.8908 35.4238 28.449 36.8008 29.4513 37.8235L50.2729 58.6382L29.4582 79.4529C28.4923 80.4827 27.965 81.8479 27.9879 83.2595C28.0108 84.6712 28.5821 86.0186 29.5809 87.0164C30.5796 88.0143 31.9275 88.5844 33.3392 88.606C34.7509 88.6277 36.1156 88.0992 37.1445 87.1323L57.9523 66.3176L78.767 87.1323C79.7898 88.1347 81.1668 88.6928 82.5988 88.6856C84.0308 88.6784 85.4021 88.1063 86.4147 87.0937C87.4272 86.0811 87.9993 84.7098 88.0065 83.2778C88.0138 81.8458 87.4556 80.4688 86.4533 79.4461L65.6386 58.6382Z" fill="white"/>
</g>
<defs>
<clipPath id="clip0_25_131">
<rect width="116" height="116" fill="white"/>
</clipPath>
</defs>
</svg>
