<svg width="116" height="116" viewBox="0 0 116 116" fill="none" xmlns="http://www.w3.org/2000/svg">
<path d="M58.0004 4.46155C28.3311 4.46155 4.46191 28.3308 4.46191 58C4.46191 87.6692 28.3311 111.538 58.0004 111.538C87.6696 111.538 111.539 87.6692 111.539 58C111.539 28.3308 87.6696 4.46155 58.0004 4.46155ZM87.8927 44.6154L53.7619 79.1923C52.4235 80.5308 50.1927 80.5308 48.8542 79.1923L30.1158 60.2308C28.7773 58.8923 28.7773 56.6615 30.1158 55.3231L35.0235 50.4154C36.3619 49.0769 38.5927 49.0769 39.9311 50.4154L49.7465 60.4539C50.6388 61.3462 52.2004 61.3462 53.0927 60.4539L78.0773 34.5769C79.4158 33.2385 81.6465 33.2385 82.985 34.5769L87.8927 39.4846C89.4542 40.8231 89.4542 43.0539 87.8927 44.6154Z" fill="white"/>
</svg>
