<svg width="84" height="84" viewBox="0 0 84 84" fill="none" xmlns="http://www.w3.org/2000/svg">
<circle cx="42" cy="42" r="42" fill="#A97FCB"/>
<path d="M66.125 25.75V24.5333L65.0363 23.9899C64.8571 23.9013 60.5869 21.8125 52.3438 21.8125C46.973 21.8125 44.0278 22.7063 42.5 23.4485C40.9722 22.7063 38.027 21.8125 32.6562 21.8125C24.4111 21.8125 20.1429 23.9013 19.9637 23.988L18.875 24.5333V27.7188H16.9062V59.2188H36.5938V61.1875H48.4062V59.2188H68.0938V25.75H66.125ZM62.1875 27.0986V52.523C60.0711 51.9501 56.7833 51.3438 52.3438 51.3438C48.7193 51.3438 46.1973 51.7513 44.4688 52.2435V26.8702C45.4846 26.4371 47.8078 25.75 52.3438 25.75C57.3089 25.75 60.6066 26.5788 62.1875 27.0986ZM22.8125 27.1006C24.3993 26.5769 27.693 25.75 32.6562 25.75C37.2336 25.75 39.5587 26.4489 40.5312 26.8564V52.2435C38.8027 51.7513 36.2807 51.3438 32.6562 51.3438C28.2167 51.3438 24.9289 51.9501 22.8125 52.523V27.1006Z" fill="white"/>
</svg>
