<svg width="127" height="127" viewBox="0 0 127 127" fill="none" xmlns="http://www.w3.org/2000/svg">
<path d="M10.583 60.8541V66.1458C10.583 83.5421 10.583 92.2401 15.3876 98.0948C16.2672 99.1663 17.2499 100.149 18.3217 101.028C24.1761 105.833 32.8743 105.833 50.2705 105.833C67.6669 105.833 76.3648 105.833 82.2195 101.028C83.291 100.149 84.2737 99.1663 85.1532 98.0948C88.8658 93.5709 89.7098 87.3495 89.9014 76.7291L93.442 78.4711C103.739 83.6194 108.887 86.1938 112.652 83.8671C116.416 81.5408 116.416 75.7846 116.416 64.272V62.7279C116.416 51.2155 116.416 45.4593 112.652 43.1327C108.887 40.8061 103.739 43.3804 93.442 48.5289L89.9014 50.2709C89.7098 39.6506 88.8658 33.429 85.1532 28.9053C84.2737 27.8335 83.291 26.8508 82.2195 25.9712C76.3648 21.1666 67.6669 21.1666 50.2705 21.1666C32.8743 21.1666 24.1761 21.1666 18.3217 25.9712C17.2499 26.8508 16.2672 27.8335 15.3876 28.9053C10.583 34.7598 10.583 43.4579 10.583 60.8541Z" fill="white"/>
</svg>
