<svg width="118" height="118" viewBox="0 0 118 118" fill="none" xmlns="http://www.w3.org/2000/svg">
<g clip-path="url(#clip0_22_107)">
<path d="M59 0C26.4152 0 0 26.4154 0 59C0 86.8531 19.3004 110.198 45.2571 116.391L117.206 49.2963C112.578 21.3285 88.2797 0 59 0Z" fill="#CEA9EB"/>
<path d="M118 59C118 55.6946 117.724 52.4542 117.201 49.297L81.2539 13.3494L24.3696 70.5435L39.6327 85.8065L32.2853 103.415L45.2579 116.387C49.6675 117.439 54.2681 118 59.0001 118C91.5847 118 118 91.5846 118 59Z" fill="#A97FCB"/>
<path d="M61.5655 85.9349H56.4351V99.787H61.5655V85.9349Z" fill="#748993"/>
<path d="M79.522 86.9609V99.787H84.6524V89.526L79.522 86.9609Z" fill="#748993"/>
<path d="M33.3481 89.526V99.787H38.4786V86.9609L33.3481 89.526Z" fill="#A2B1B7"/>
<path d="M73.1084 10.2609C78.7519 10.2609 84.3502 14.7728 85.5489 20.2877L89.7823 39.7609V62.8479H51.3042L58.9998 10.2609H73.1084Z" fill="#313A3E"/>
<path d="M64.1306 62.8479H53.8696V85.9349H64.1306V62.8479Z" fill="#414D53"/>
<path d="M84.6526 84.3956H33.3481V89.526H84.6526V84.3956Z" fill="#57676E"/>
<path d="M35.9132 104.917C38.7467 104.917 41.0436 102.62 41.0436 99.787C41.0436 96.9535 38.7467 94.6565 35.9132 94.6565C33.0797 94.6565 30.7827 96.9535 30.7827 99.787C30.7827 102.62 33.0797 104.917 35.9132 104.917Z" fill="#414D53"/>
<path d="M59.0001 104.917C61.8336 104.917 64.1306 102.62 64.1306 99.787C64.1306 96.9535 61.8336 94.6565 59.0001 94.6565C56.1666 94.6565 53.8696 96.9535 53.8696 99.787C53.8696 102.62 56.1666 104.917 59.0001 104.917Z" fill="#313A3E"/>
<path d="M82.087 104.917C84.9205 104.917 87.2175 102.62 87.2175 99.787C87.2175 96.9535 84.9205 94.6565 82.087 94.6565C79.2535 94.6565 76.9565 96.9535 76.9565 99.787C76.9565 102.62 79.2535 104.917 82.087 104.917Z" fill="#313A3E"/>
<path d="M44.8912 10.2609C39.2478 10.2609 33.6494 14.7728 32.4508 20.2877L28.2173 39.7609V62.8479H58.9998V10.2609H44.8912Z" fill="#414D53"/>
<path d="M85.9349 57.7174L88.5 65.413H44.25L54.5109 44.8914H73.1088C80.1623 44.8914 85.9349 50.6637 85.9349 57.7174Z" fill="#748993"/>
<path d="M43.6086 44.8914C36.5551 44.8914 32.0651 50.6639 32.0651 57.7174L29.5 65.413H59V44.8914H43.6086Z" fill="#A2B1B7"/>
<path d="M85.935 39.7609V62.8479H59.0001L54.8911 67.9784L59.0001 70.5435H93.6306V39.7609H85.935Z" fill="#57676E"/>
<path d="M32.0652 62.8479V39.7609H24.3696V70.5435H59.0001V62.8479H32.0652Z" fill="#748993"/>
</g>
<defs>
<clipPath id="clip0_22_107">
<rect width="118" height="118" fill="white"/>
</clipPath>
</defs>
</svg>
