<svg width="116" height="116" viewBox="0 0 116 116" fill="none" xmlns="http://www.w3.org/2000/svg">
<path d="M58.0004 0C28.4038 0 5.21582 12.6821 5.21582 28.8762V87.1088C5.21582 103.303 28.4038 115.985 58.0004 115.985C87.597 115.985 110.785 103.303 110.785 87.1088V28.8762C110.77 12.6821 87.597 0 58.0004 0ZM14.2209 57.5723C14.2209 55.246 15.2414 52.9197 17.2526 50.6384C17.8979 49.918 18.2431 49.0325 18.3482 48.147C27.9536 54.0903 42.0315 57.7824 58.0004 57.7824C73.8193 57.7824 87.8071 54.1503 97.3975 48.3121C97.5776 49.0475 97.9078 49.7379 98.4481 50.3382C100.654 52.7245 101.765 55.1559 101.765 57.5873C101.765 66.9825 83.7848 77.4584 57.9854 77.4584C32.1859 77.4584 14.2209 66.9675 14.2209 57.5723ZM58.0004 9.00505C83.7999 9.00505 101.78 19.4809 101.78 28.8762C101.78 38.2714 83.7999 48.7623 58.0004 48.7623C32.2009 48.7623 14.2209 38.2865 14.2209 28.8762C14.2209 19.4659 32.2009 9.00505 58.0004 9.00505ZM58.0004 106.995C32.2009 106.995 14.2209 96.5191 14.2209 87.1088C14.2209 84.7825 15.2414 82.4562 17.2526 80.1749C18.093 79.2144 18.4532 77.9987 18.3632 76.8281C27.9686 82.7564 42.0465 86.4484 58.0004 86.4484C73.7592 86.4484 87.687 82.8464 97.2774 77.0532C97.3374 78.0587 97.7126 79.0643 98.4481 79.8597C100.654 82.2461 101.765 84.6774 101.765 87.1088C101.765 96.5191 83.7999 106.995 58.0004 106.995Z" fill="white"/>
</svg>
